<svg xmlns="http://www.w3.org/2000/svg" width="980" height="520" viewBox="0 0 980 520" role="img" aria-labelledby="title desc">
  <title id="title">FIPS-0001 system boundary</title>
  <desc id="desc">Architecture diagram showing the Kotlin Android adapter, the Rust app core, and the persistent hashtree storage boundary.</desc>
  <defs>
    <marker id="arrow" markerWidth="10" markerHeight="10" refX="9" refY="5" orient="auto" markerUnits="strokeWidth">
      <path d="M0,0 L10,5 L0,10 z" fill="#355c7d"/>
    </marker>
    <style>
      .bg { fill: #f7f4ef; }
      .frame { fill: #fffdf8; stroke: #9a8f7a; stroke-width: 2; rx: 18; }
      .kotlin { fill: #f7e3c7; stroke: #b7791f; stroke-width: 2; rx: 16; }
      .rust { fill: #d9ead7; stroke: #4c7a57; stroke-width: 2; rx: 16; }
      .store { fill: #ddebf7; stroke: #4c6f91; stroke-width: 2; rx: 16; }
      .title { font: 700 28px Arial, sans-serif; fill: #2d2d2d; }
      .section { font: 700 22px Arial, sans-serif; fill: #2d2d2d; }
      .body { font: 16px Arial, sans-serif; fill: #2d2d2d; }
      .mono { font: 15px 'SFMono-Regular', Consolas, monospace; fill: #2d2d2d; }
      .arrow { stroke: #355c7d; stroke-width: 3; fill: none; marker-end: url(#arrow); }
    </style>
  </defs>

  <rect class="bg" x="0" y="0" width="980" height="520"/>
  <text class="title" x="40" y="50">LocalGram Architecture Boundary</text>

  <rect class="frame" x="40" y="80" width="900" height="390"/>

  <rect class="kotlin" x="70" y="120" width="250" height="290"/>
  <text class="section" x="95" y="155">Kotlin Adapter</text>
  <text class="body" x="95" y="190">- Activity lifecycle and UI</text>
  <text class="body" x="95" y="218">- Camera intent and FileProvider</text>
  <text class="body" x="95" y="246">- Wi-Fi Aware and ConnectivityManager</text>
  <text class="body" x="95" y="274">- Socket read/write plumbing</text>
  <text class="body" x="95" y="302">- BitmapFactory decoding</text>
  <text class="mono" x="95" y="350">MainActivity.kt</text>

  <rect class="rust" x="365" y="120" width="290" height="290"/>
  <text class="section" x="390" y="155">Rust Core</text>
  <text class="body" x="390" y="190">- feed root and block-store policy</text>
  <text class="body" x="390" y="218">- peer state machine</text>
  <text class="body" x="390" y="246">- root/block sync protocol</text>
  <text class="body" x="390" y="274">- merge and dedupe by content hash</text>
  <text class="body" x="390" y="302">- ViewState shaping</text>
  <text class="mono" x="390" y="338">app_core.rs</text>
  <text class="mono" x="390" y="364">photo_store.rs</text>
  <text class="mono" x="390" y="390">protocol.rs</text>

  <rect class="store" x="700" y="120" width="210" height="290"/>
  <text class="section" x="725" y="155">App-Private Data</text>
  <text class="mono" x="725" y="195">files/hashtree/blocks</text>
  <text class="mono" x="725" y="223">files/hashtree/roots</text>
  <text class="mono" x="725" y="251">cache/render</text>
  <text class="mono" x="725" y="279">cache/capture</text>
  <text class="body" x="725" y="320">Durable:</text>
  <text class="body" x="725" y="346">blocks + local_feed_root.txt</text>
  <text class="body" x="725" y="378">Disposable:</text>
  <text class="body" x="725" y="404">render cache and capture temp files</text>

  <path class="arrow" d="M320 265 L365 265"/>
  <path class="arrow" d="M655 265 L700 265"/>

  <text class="body" x="348" y="245">UiAction / AndroidEvent</text>
  <text class="body" x="666" y="245">HashTree / FsBlobStore</text>
</svg>
